<?xml version="1.0"?>
<svg xmlns="http://www.w3.org/2000/svg" viewBox="0 0 50 50" fill="#334">
    <path d="M 26 0.90625 C 22.1 0.90625 18.5 2.30625 16 4.90625 C 14.9 6.00625 14.1 7.2 13.5 8.5 C 12.5 8.1 11.1125 8.19375 10.3125 9.09375 C 9.9125 9.59375 8.60625 11.30625 8.40625 12.90625 C 8.20625 14.20625 8.0125 18.59375 9.3125 21.59375 C 9.7125 22.49375 10.1875 23.40625 10.6875 24.40625 C 11.5875 26.10625 12.6 27.90625 13 29.40625 C 12.6 29.80625 11.9875 30.0125 11.1875 30.3125 C 8.1875 31.4125 3.59375 33.0125 3.59375 45.8125 L 4.59375 45.8125 L 5.59375 45.8125 L 40 45.8125 L 41 45.8125 L 42 45.8125 C 42 43.3125 41.5 42.00625 41 40.90625 C 40.9 40.90625 40.8125 40.7 40.8125 40.5 C 40.2125 38.8 38.6875 34.1875 38.6875 32.6875 C 38.6875 30.9875 39.5 28.7 41 26 C 41.3 25.5 41.5125 25.0875 41.8125 24.6875 C 42.9125 22.6875 43.69375 21.3125 43.59375 19.8125 C 43.49375 18.4125 41.6125 10.60625 41.3125 9.90625 C 40.7125 9.00625 39.9 8.50625 39 8.40625 C 38.7 8.40625 38.39375 8.49375 38.09375 8.59375 C 37.49375 7.29375 36.6 6.00625 35.5 4.90625 C 33 2.30625 29.6 0.90625 26 0.90625 z M 25.90625 3 C 29.00625 3 31.9 4.20625 34 6.40625 C 36.2 8.60625 37.3125 11.4 37.3125 14.5 C 37.3125 18.7 35.9 21.20625 34.5 23.90625 C 33.3 26.10625 32.1875 28.30625 31.6875 31.40625 C 31.1875 34.50625 29.50625 36.1875 26.90625 36.1875 C 24.60625 36.1875 22.8 35.3 22 31 C 21.4 27.8 19.8125 26.0125 18.3125 24.3125 C 16.3125 22.0125 14.4125 19.9 14.3125 14.5 C 14.3125 13.4 14.3875 12.40625 14.6875 11.40625 C 14.7875 11.30625 14.8125 11.2 14.8125 11 L 14.8125 10.90625 C 15.3125 9.10625 16.1125 7.60625 17.3125 6.40625 C 19.5125 4.20625 22.50625 3 25.90625 3 z M 12.3125 10.40625 C 12.5125 10.40625 12.5875 10.5 12.6875 10.5 C 12.3875 11.7 12.1875 13.0125 12.1875 14.3125 C 12.2875 20.5125 14.5875 23.10625 16.6875 25.40625 C 17.3875 26.20625 18 26.8875 18.5 27.6875 L 18.5 27.8125 C 18.8 29.1125 18.40625 29.9875 17.90625 31.1875 C 17.50625 32.0875 17.1875 32.9 17.1875 34 C 17.2875 34.2 17.2875 34.5875 17.1875 35.1875 C 17.0875 37.1875 17 40.49375 17 42.09375 C 17 43.29375 15.29375 43.70625 14.09375 43.90625 C 14.39375 40.90625 15.1 32.89375 15 30.59375 C 14.9 28.39375 13.6125 25.99375 12.3125 23.59375 C 11.8125 22.59375 11.30625 21.70625 10.90625 20.90625 C 9.80625 18.30625 9.9875 14.2125 10.1875 13.3125 C 10.2875 12.4125 11.0875 11.2 11.6875 10.5 C 11.7875 10.5 12.0125 10.40625 12.3125 10.40625 z M 38.8125 10.5 L 39 10.5 C 39.1 10.5 39.30625 10.6125 39.40625 10.8125 C 39.60625 11.4125 41.3 18.5 41.5 20 C 41.6 20.9 41 21.9875 40 23.6875 C 39.8 24.0875 39.4875 24.59375 39.1875 25.09375 C 38.0875 27.19375 36.6875 30.2125 36.6875 32.8125 C 36.6875 34.7125 38.40625 39.7 38.90625 41 C 38.80625 41.4 38.3 42.5125 37 43.3125 C 35.6 39.8125 33.5 33.2 34 30.5 C 34.5 28.3 35.40625 26.6125 36.40625 24.8125 C 37.90625 22.0125 39.40625 19.1 39.40625 14.5 C 39.40625 13.1 39.2125 11.8 38.8125 10.5 z M 30 15 C 29.447715 15 29 15.447715 29 16 C 29 16.552285 29.447715 17 30 17 C 30.552285 17 31 16.552285 31 16 C 31 15.447715 30.552285 15 30 15 z M 19 16 C 18.447715 16 18 16.447715 18 17 C 18 17.552285 18.447715 18 19 18 C 19.552285 18 20 17.552285 20 17 C 20 16.447715 19.552285 16 19 16 z M 27.3125 19.40625 C 26.870672 19.40625 26.5 19.745672 26.5 20.1875 C 26.5 20.629328 26.870672 21 27.3125 21 C 27.754328 21 28.09375 20.629328 28.09375 20.1875 C 28.09375 19.745672 27.754328 19.40625 27.3125 19.40625 z M 23.59375 19.8125 C 23.151923 19.8125 22.8125 20.151923 22.8125 20.59375 C 22.8125 21.035578 23.151923 21.40625 23.59375 21.40625 C 24.035578 21.40625 24.40625 21.035578 24.40625 20.59375 C 24.40625 20.151923 24.035578 19.8125 23.59375 19.8125 z M 25.09375 22.8125 C 24.59375 22.8125 24.0875 23.00625 23.6875 23.40625 C 22.9875 24.10625 22.80625 25.40625 22.90625 27.40625 C 23.10625 30.60625 24.6 31.6875 26 31.6875 C 26.7 31.6875 27.1875 31.5 27.6875 31 C 28.3875 30.3 28.69375 29.1 28.59375 27.5 C 28.49375 25.1 26.79375 22.8125 25.09375 22.8125 z M 22.90625 36.90625 C 24.00625 37.70625 25.30625 38.09375 26.90625 38.09375 C 28.10625 38.09375 29.19375 37.8125 30.09375 37.3125 L 29.8125 38.1875 C 29.0125 40.3875 27.0125 42.8875 26.3125 43.1875 C 26.0125 42.8875 25.09375 41.90625 23.09375 37.40625 C 22.99375 37.20625 23.00625 37.10625 22.90625 36.90625 z"/>
</svg>
