<?xml version="1.0"?>
<svg xmlns="http://www.w3.org/2000/svg" viewBox="0 0 50 50" fill="#bbb">
    <path d="M 25 4 C 12.329 4 2 12.880141 2 23.994141 C 2 30.447141 5.5329375 36.061469 10.960938 39.730469 C 10.951937 39.946469 10.968547 40.29575 10.685547 41.34375 C 10.334547 42.64275 9.6265 44.472156 8.1875 46.535156 L 7.1640625 48 L 8.9511719 48 C 15.141172 48 18.723344 43.964406 19.277344 43.316406 C 21.122344 43.748406 23.017047 43.986328 24.998047 43.986328 C 37.669047 43.986328 47.998047 35.107188 47.998047 23.992188 C 47.999047 12.878187 37.671 4 25 4 z M 25 6 C 36.579 6 46 14.072141 46 23.994141 C 46 33.916141 36.579 41.988281 25 41.988281 C 23.229 41.988281 21.506375 41.786094 19.734375 41.371094 L 18.548828 41.09375 L 17.757812 42.017578 C 17.072813 42.817578 14.775328 45.166172 10.986328 45.826172 C 11.710328 44.522172 12.256234 43.196234 12.615234 41.865234 C 12.894234 40.831234 12.944984 40.287453 12.958984 39.814453 L 13.005859 38.699219 L 12.080078 38.074219 C 6.9440781 34.602219 4 29.470141 4 23.994141 C 4 14.072141 13.421 6 25 6 z M 17 17 L 17 24 L 20 24 C 20 24.659 19.826 27.500484 17 29.146484 L 17 32.451172 C 21.386 30.766172 23 26.981 23 24 L 23 21.5 L 23 17 L 17 17 z M 27 17 L 27 24 L 30 24 C 30 24.659 29.826 27.500484 27 29.146484 L 27 32.451172 C 31.386 30.766172 33 26.981 33 24 L 33 21.5 L 33 17 L 27 17 z"/>
</svg>
