<?xml version="1.0" encoding="utf-8"?>
<!-- Generator: Adobe Illustrator 22.0.1, SVG Export Plug-In . SVG Version: 6.00 Build 0)  -->
<svg version="1.1" id="Capa_1" xmlns="http://www.w3.org/2000/svg" xmlns:xlink="http://www.w3.org/1999/xlink" x="0px" y="0px"
	 viewBox="0 0 100 100" style="enable-background:new 0 0 100 100;" xml:space="preserve">
<g>
	<path d="M33.9,44.8c-0.5,0-0.9,0.4-0.9,0.9v2.9c0,0.5,0.4,0.9,0.9,0.9c0.5,0,0.9-0.4,0.9-0.9v-2.9C34.8,45.2,34.4,44.8,33.9,44.8z"
		/>
	<path d="M34.8,41.8c0-0.5-0.4-0.9-0.9-0.9S33,41.4,33,41.8v0.6c0,0.5,0.4,0.9,0.9,0.9s0.9-0.4,0.9-0.9V41.8z"/>
	<path d="M36.6,29c0.3-0.4,0.3-0.9-0.1-1.3c-0.4-0.3-0.9-0.3-1.3,0.1c-1.3,1.4-2,3.2-2.2,5.1c0,0,0,0.1,0,0.1c0,0,0,0.1,0,0.1l0,0.1
		c0,0,0,0,0,0c0,0.1,0,0.1,0,0.2c0,0,0,0.1,0,0.1c0,0,0,0.1,0,0.1v3.2c0,0.5,0.4,0.9,0.9,0.9c0.5,0,0.9-0.4,0.9-0.9v-3.2
		c0,0,0,0,0-0.1c0,0,0,0,0-0.1c0,0,0-0.1,0-0.1c0,0,0,0,0,0l0-0.1c0,0,0-0.1,0-0.1c0,0,0-0.1,0-0.1C34.9,31.5,35.6,30.1,36.6,29z"/>
	<path d="M38.4,27.4c0.1,0,0.3,0,0.4-0.1c0,0,0.1,0,0.1-0.1c0,0,0,0,0,0c0.1-0.1,0.3-0.1,0.4-0.2c0.5-0.2,0.7-0.7,0.5-1.2
		c-0.2-0.5-0.7-0.7-1.2-0.5c-0.2,0.1-0.3,0.1-0.5,0.2c0,0,0,0,0,0c0,0-0.1,0-0.1,0.1c-0.4,0.2-0.6,0.7-0.4,1.2
		C37.8,27.2,38.1,27.4,38.4,27.4z"/>
	<path d="M71,48.4V33.7c0-4.8-4-8.8-8.8-8.8h-2.1l1-1.7c0.2-0.4,0.1-1-0.3-1.2l-6.4-3.7c-0.2-0.1-0.5-0.2-0.7-0.1
		c-0.2,0.1-0.4,0.2-0.5,0.4l-3.4,5.9c-0.1,0.1-0.1,0.3-0.1,0.4h-1.8c0,0-0.1,0-0.1,0c0,0-0.1,0-0.1,0H44c-0.5,0-0.9,0.4-0.9,0.9
		s0.4,0.9,0.9,0.9h3.6c0,0,0.1,0,0.1,0c0,0,0.1,0,0.1,0h1.3L38.3,45.4c0,0,0,0,0,0c0,0,0,0.1-0.1,0.1c0,0,0,0,0,0c0,0,0,0.1,0,0.1
		c0,0,0,0,0,0c0,0,0,0.1,0,0.1l0.1,5.1h-0.4c0,0-0.1,0-0.1,0c0,0-0.1,0-0.1,0h-0.2c0,0,0,0-0.1,0c0,0,0,0-0.1,0h-2.6
		c-0.5,0-0.9,0.4-0.9,0.9c0,0.5,0.4,0.9,0.9,0.9h2.6c0,0,0,0,0.1,0c0,0,0,0,0.1,0h0.2c0,0,0.1,0,0.1,0c0,0,0.1,0,0.1,0h4.2
		c0.5,0,0.9-0.4,0.9-0.9c0-0.3-0.2-0.6-0.5-0.8l2.4-1.3c0.1-0.1,0.3-0.2,0.3-0.3l11.5-19.9c0.1,0,0.1,0,0.2,0c0.3,0,0.6-0.2,0.8-0.4
		l1.4-2.4h3.1c3.9,0,7,3.1,7,7v15c0,0,0,0,0,0v0c0,0,0,0,0,0c0,0,0,0.1,0,0.1c0,0,0,0,0,0.1c0,0,0,0.1,0,0.1c0,0,0,0.1,0,0.1
		c0,0,0,0,0,0.1l4.6,7h-3.8c-0.5,0-0.9,0.4-0.9,0.9v6.6c0,3.9-3.1,7-7,7h-5.8l0,0l0,0c-0.5,0-0.9,0.4-0.9,0.9v8.6H34.8V63.6
		c0,0,0,0,0,0v-8.5c0-0.5-0.4-0.9-0.9-0.9c-0.5,0-0.9,0.4-0.9,0.9v8.5c0,0,0,0,0,0V81c0,0.5,0.4,0.9,0.9,0.9h22.5
		c0.5,0,0.9-0.4,0.9-0.9v-8.6h4.9c4.9,0,8.8-3.9,8.8-8.8v-5.7h4.6c0.3,0,0.6-0.2,0.8-0.5c0.2-0.3,0.1-0.6,0-0.9L71,48.4z M40.1,50.3
		l0-2.9l2.6,1.5L40.1,50.3z M44.1,47.7l-3.8-2.2l11-19.1l1.1,0.6l-3.1,5.4c-0.2,0.4-0.1,1,0.3,1.2c0.1,0.1,0.3,0.1,0.4,0.1
		c0.3,0,0.6-0.2,0.8-0.4L54,28l1.1,0.6L44.1,47.7z M56.6,27.4l-1.7-1l1.3-2.2c0.2-0.4,0.1-1-0.3-1.2c-0.4-0.2-1-0.1-1.2,0.3
		l-1.2,2.2l-1.7-1l2.5-4.3l4.9,2.8L56.6,27.4z"/>
	<path d="M24.5,52.7h2.9c0.5,0,0.9-0.4,0.9-0.9c0-0.5-0.4-0.9-0.9-0.9h-2.9c-0.5,0-0.9,0.4-0.9,0.9C23.6,52.3,24,52.7,24.5,52.7z"/>
	<path d="M30.5,50.9H30c-0.5,0-0.9,0.4-0.9,0.9c0,0.5,0.4,0.9,0.9,0.9h0.5c0.5,0,0.9-0.4,0.9-0.9C31.4,51.3,31,50.9,30.5,50.9z"/>
	<path d="M45.2,52.7c0.5,0,0.9-0.4,0.9-0.9c0-0.5-0.4-0.9-0.9-0.9h-0.5c-0.5,0-0.9,0.4-0.9,0.9c0,0.5,0.4,0.9,0.9,0.9H45.2z"/>
	<path d="M52.3,52.7C52.4,52.7,52.4,52.7,52.3,52.7c0.1,0,0.2,0,0.2,0h2.9c0.5,0,0.9-0.4,0.9-0.9c0-0.5-0.4-0.9-0.9-0.9h-2.9
		c0,0-0.1,0-0.1,0c0,0-0.1,0-0.1,0h-2.9c-0.5,0-0.9,0.4-0.9,0.9c0,0.5,0.4,0.9,0.9,0.9H52.3z"/>
	<path d="M85.1,67.5c-0.4-0.2-1-0.1-1.2,0.4c-0.9,1.7-1.9,3.3-3,4.8c-0.3,0.4-0.2,1,0.2,1.3c0.2,0.1,0.3,0.2,0.5,0.2
		c0.3,0,0.5-0.1,0.7-0.4c1.2-1.6,2.3-3.3,3.2-5.1C85.7,68.2,85.5,67.7,85.1,67.5z"/>
	<path d="M87.7,42.9c0.1,0.4,0.5,0.7,0.9,0.7c0.1,0,0.1,0,0.2,0c0.5-0.1,0.8-0.6,0.7-1c-0.4-2-0.9-3.9-1.5-5.8
		c-0.2-0.5-0.7-0.7-1.1-0.5c-0.5,0.2-0.7,0.7-0.5,1.1C86.8,39.2,87.3,41,87.7,42.9z"/>
	<path d="M73.9,79.9c-1.5,1.2-3.1,2.3-4.7,3.2c-0.4,0.2-0.6,0.8-0.3,1.2c0.2,0.3,0.5,0.4,0.8,0.4c0.2,0,0.3,0,0.4-0.1
		c1.7-1,3.4-2.1,4.9-3.4c0.4-0.3,0.4-0.9,0.1-1.3C74.9,79.6,74.3,79.6,73.9,79.9z"/>
	<path d="M30.4,17.1c0.2,0,0.3,0,0.4-0.1c1.6-1,3.4-1.8,5.1-2.5c0.5-0.2,0.7-0.7,0.5-1.2c-0.2-0.5-0.7-0.7-1.2-0.5
		c-1.8,0.7-3.7,1.6-5.4,2.6c-0.4,0.2-0.6,0.8-0.3,1.2C29.8,16.9,30.1,17.1,30.4,17.1z"/>
	<path d="M14.6,33.2c0.1,0.1,0.3,0.1,0.4,0.1c0.3,0,0.6-0.2,0.8-0.5l0.1-0.2c0,0,0,0,0,0c0.1-0.2,0.2-0.3,0.2-0.5
		c0.2-0.4,0.1-1-0.4-1.2c-0.4-0.2-1-0.1-1.2,0.4c-0.1,0.2-0.2,0.3-0.3,0.5c0,0,0,0,0,0L14.2,32C14,32.5,14.2,33,14.6,33.2z"/>
	<path d="M89.2,52c-0.5,0-0.9,0.3-1,0.8c-0.1,1.9-0.4,3.8-0.8,5.6c-0.1,0.5,0.2,1,0.7,1.1c0.1,0,0.1,0,0.2,0c0.4,0,0.8-0.3,0.9-0.7
		c0.4-1.9,0.7-3.9,0.9-5.9C90,52.5,89.7,52.1,89.2,52z"/>
	<path d="M25,20.8c0.2,0,0.4-0.1,0.6-0.2l0.1-0.1c0,0,0,0,0,0c0.1-0.1,0.3-0.2,0.4-0.3c0.4-0.3,0.4-0.9,0.1-1.3
		c-0.3-0.4-0.9-0.4-1.3-0.1c-0.1,0.1-0.3,0.2-0.4,0.4c0,0,0,0,0,0l0,0l0,0l-0.1,0.1c-0.4,0.3-0.4,0.9-0.1,1.3
		C24.5,20.7,24.7,20.8,25,20.8z"/>
	<path d="M88.1,46.4l0,0.2l0,0c0,0.2,0,0.4,0,0.5c0,0.5,0.4,0.8,0.9,0.8c0,0,0,0,0.1,0c0.5,0,0.9-0.5,0.8-1c0-0.2,0-0.4,0-0.6
		c0,0,0,0,0,0v0l0,0l0-0.2c0-0.5-0.5-0.9-1-0.8C88.5,45.5,88.1,45.9,88.1,46.4z"/>
	<path d="M39.1,13.3c0.1,0,0.2,0,0.2,0l0.2,0c0,0,0,0,0,0c0.2,0,0.3-0.1,0.5-0.1c0.5-0.1,0.8-0.6,0.6-1.1c-0.1-0.5-0.6-0.8-1.1-0.6
		c-0.2,0-0.4,0.1-0.5,0.1c0,0,0,0,0,0l-0.2,0.1c-0.5,0.1-0.7,0.6-0.6,1.1C38.4,13.1,38.7,13.3,39.1,13.3z"/>
	<path d="M73.3,19.7l0.1,0.1c0,0,0,0,0,0c0.1,0.1,0.3,0.2,0.4,0.3c0.2,0.1,0.4,0.2,0.6,0.2c0.3,0,0.5-0.1,0.7-0.3
		c0.3-0.4,0.2-0.9-0.1-1.3c-0.1-0.1-0.3-0.2-0.4-0.3c0,0,0,0,0,0l-0.1-0.1c-0.4-0.3-1-0.2-1.3,0.2C72.9,18.8,72.9,19.4,73.3,19.7z"
		/>
	<path d="M11.6,42.2c0.1,0,0.1,0,0.2,0c0.4,0,0.8-0.3,0.9-0.7c0.4-1.9,1-3.7,1.7-5.5c0.2-0.5,0-1-0.5-1.2c-0.5-0.2-1,0-1.2,0.5
		c-0.7,1.9-1.3,3.8-1.8,5.7C10.8,41.6,11.1,42.1,11.6,42.2z"/>
	<path d="M83.6,31.7C83.6,31.7,83.6,31.7,83.6,31.7c0.1,0.2,0.2,0.3,0.3,0.5c0.2,0.3,0.5,0.5,0.8,0.5c0.1,0,0.3,0,0.4-0.1
		c0.4-0.2,0.6-0.8,0.4-1.2c-0.1-0.2-0.2-0.3-0.3-0.5c0,0,0,0,0,0l-0.1-0.2c-0.2-0.4-0.8-0.6-1.2-0.3c-0.4,0.2-0.6,0.8-0.3,1.2
		L83.6,31.7z"/>
	<path d="M45.7,12c3.3-0.4,6.8-0.3,10.1,0.2c0,0,0.1,0,0.1,0c0.4,0,0.8-0.3,0.9-0.8c0.1-0.5-0.3-0.9-0.8-1
		c-3.5-0.5-7.1-0.6-10.5-0.2c-0.5,0.1-0.8,0.5-0.8,1C44.7,11.7,45.2,12.1,45.7,12z"/>
	<path d="M59.3,12.9l0.2,0c0,0,0,0,0,0c0.2,0,0.3,0.1,0.5,0.1c0.1,0,0.2,0,0.2,0c0.4,0,0.8-0.3,0.9-0.7c0.1-0.5-0.2-1-0.6-1.1
		c-0.2,0-0.4-0.1-0.5-0.1c0,0,0,0,0,0l-0.2,0c-0.5-0.1-1,0.2-1.1,0.7C58.5,12.3,58.8,12.8,59.3,12.9z"/>
	<path d="M65.3,15c1.7,0.8,3.4,1.7,5.1,2.7c0.1,0.1,0.3,0.1,0.5,0.1c0.3,0,0.6-0.1,0.8-0.4c0.3-0.4,0.1-1-0.3-1.2
		c-1.7-1.1-3.5-2-5.3-2.8c-0.5-0.2-1,0-1.2,0.5C64.7,14.2,64.9,14.8,65.3,15z"/>
	<path d="M87.5,61.4c-0.5-0.2-1,0.1-1.1,0.6l-0.1,0.2v0c-0.1,0.2-0.1,0.3-0.2,0.5c-0.2,0.5,0.1,1,0.6,1.1c0.1,0,0.2,0,0.3,0
		c0.4,0,0.7-0.2,0.8-0.6c0.1-0.2,0.1-0.4,0.2-0.5c0,0,0,0,0,0v0c0,0,0,0,0,0l0.1-0.2C88.3,62,88,61.5,87.5,61.4z"/>
	<path d="M35.4,85.3l-0.2-0.1c0,0,0,0,0,0c-0.2-0.1-0.3-0.1-0.5-0.2c-0.5-0.2-1,0-1.2,0.5c-0.2,0.5,0,1,0.5,1.2
		c0.2,0.1,0.3,0.1,0.5,0.2c0,0,0,0,0,0l0.2,0.1c0.1,0,0.2,0.1,0.3,0.1c0.4,0,0.7-0.2,0.8-0.6C36.1,86,35.9,85.5,35.4,85.3z"/>
	<path d="M10.9,48.8C10.9,48.8,10.9,48.8,10.9,48.8c0.5,0,0.9-0.4,0.9-0.8l0-0.2c0,0,0,0,0,0c0-0.2,0-0.4,0-0.5c0-0.5-0.3-0.9-0.8-1
		c-0.5,0-0.9,0.3-1,0.8c0,0.2,0,0.4,0,0.5c0,0,0,0,0,0l0,0.2C10,48.3,10.4,48.7,10.9,48.8z"/>
	<path d="M44.4,87.8c-1.9-0.3-3.8-0.7-5.6-1.3c-0.5-0.1-1,0.1-1.1,0.6s0.1,1,0.6,1.1c1.9,0.6,3.9,1,5.8,1.3c0,0,0.1,0,0.1,0
		c0.4,0,0.8-0.3,0.9-0.8C45.2,88.3,44.9,87.9,44.4,87.8z"/>
	<path d="M60,86.9c-1.8,0.5-3.7,0.8-5.6,1.1c-0.5,0.1-0.8,0.5-0.8,1c0.1,0.5,0.4,0.8,0.9,0.8c0,0,0.1,0,0.1,0c2-0.2,4-0.6,5.9-1.1
		c0.5-0.1,0.8-0.6,0.6-1.1C61,87.1,60.5,86.8,60,86.9z"/>
	<path d="M50.8,88.2l-0.2,0c-0.2,0-0.4,0-0.5,0c-0.5,0-0.9,0.4-0.9,0.9c0,0.5,0.4,0.9,0.9,0.9c0,0,0,0,0,0c0.2,0,0.4,0,0.6,0
		c0,0,0,0,0,0l0.2,0c0.5,0,0.9-0.4,0.9-0.9C51.7,88.6,51.3,88.2,50.8,88.2z"/>
	<path d="M66,84.7l-0.2,0.1l0,0c-0.2,0.1-0.3,0.1-0.5,0.2c-0.5,0.2-0.7,0.7-0.5,1.2c0.1,0.3,0.5,0.5,0.8,0.5c0.1,0,0.2,0,0.4-0.1
		c0.2-0.1,0.3-0.2,0.5-0.2c0,0,0,0,0,0l0.2-0.1c0.5-0.2,0.6-0.7,0.4-1.2C67,84.7,66.5,84.5,66,84.7z"/>
	<path d="M29.7,82.4c-1.6-1-3.2-2.1-4.6-3.4c-0.4-0.3-0.9-0.3-1.3,0.1c-0.3,0.4-0.3,0.9,0.1,1.3c1.5,1.3,3.1,2.5,4.8,3.5
		c0.1,0.1,0.3,0.1,0.5,0.1c0.3,0,0.6-0.1,0.8-0.4C30.3,83.2,30.1,82.6,29.7,82.4z"/>
	<path d="M81.7,28.5c0.2,0.3,0.5,0.4,0.7,0.4c0.2,0,0.3-0.1,0.5-0.2c0.4-0.3,0.5-0.8,0.2-1.2c-1.1-1.6-2.4-3.2-3.7-4.7
		c-0.3-0.4-0.9-0.4-1.3,0c-0.4,0.3-0.4,0.9,0,1.3C79.4,25.4,80.6,26.9,81.7,28.5z"/>
	<path d="M14.2,63.4l-0.1-0.2c0,0,0,0,0,0C14,63,14,62.8,13.9,62.7c-0.2-0.5-0.7-0.7-1.1-0.5c-0.5,0.2-0.7,0.7-0.5,1.1
		c0.1,0.2,0.1,0.3,0.2,0.5c0,0,0,0,0,0l0.1,0.2c0.1,0.4,0.5,0.6,0.8,0.6c0.1,0,0.2,0,0.3-0.1C14.1,64.3,14.3,63.8,14.2,63.4z"/>
	<path d="M12.4,57.2c-0.4-1.9-0.6-3.8-0.6-5.7c0-0.5-0.4-0.9-0.9-0.9c-0.5,0-0.9,0.4-0.9,0.9c0.1,2,0.3,4,0.7,5.9
		c0.1,0.4,0.5,0.7,0.9,0.7c0.1,0,0.1,0,0.2,0C12.2,58.1,12.5,57.7,12.4,57.2z"/>
	<path d="M15.6,66.6c-0.2-0.4-0.8-0.6-1.2-0.4c-0.4,0.2-0.6,0.7-0.4,1.2c0.9,1.8,1.9,3.5,3,5.2c0.2,0.3,0.5,0.4,0.7,0.4
		c0.2,0,0.4-0.1,0.5-0.2c0.4-0.3,0.5-0.8,0.2-1.2C17.4,70,16.4,68.3,15.6,66.6z"/>
	<path d="M21.7,21.8c-1.4,1.4-2.7,2.9-3.9,4.5c-0.3,0.4-0.2,1,0.2,1.3c0.2,0.1,0.3,0.2,0.5,0.2c0.3,0,0.5-0.1,0.7-0.4
		c1.1-1.5,2.4-3,3.7-4.3c0.3-0.3,0.3-0.9,0-1.3C22.6,21.4,22,21.4,21.7,21.8z"/>
	<path d="M22.4,76.4C22.4,76.4,22.4,76.4,22.4,76.4c-0.1-0.1-0.3-0.3-0.4-0.4c-0.3-0.4-0.9-0.4-1.3,0c-0.4,0.3-0.4,0.9,0,1.3
		c0.1,0.1,0.2,0.3,0.4,0.4c0,0,0,0,0,0l0.1,0.1c0.2,0.2,0.4,0.3,0.6,0.3c0.2,0,0.4-0.1,0.6-0.3c0.4-0.3,0.4-0.9,0-1.3L22.4,76.4z"/>
	<path d="M78.6,75.4l-0.1,0.1c0,0,0,0,0,0c-0.1,0.1-0.2,0.3-0.4,0.4c-0.3,0.4-0.3,0.9,0,1.3c0.2,0.2,0.4,0.2,0.6,0.2
		c0.2,0,0.5-0.1,0.7-0.3c0.1-0.1,0.3-0.3,0.4-0.4c0,0,0,0,0,0l0.1-0.1c0.3-0.4,0.3-0.9-0.1-1.3C79.5,75,78.9,75.1,78.6,75.4z"/>
</g>
</svg>
